<svg xmlns="http://www.w3.org/2000/svg" xmlns:xlink="http://www.w3.org/1999/xlink" fill="none" version="1.1" width="16" height="16" viewBox="0 0 16 16"><defs><clipPath id="master_svg0_251_28771"><rect x="0" y="0" width="16" height="16" rx="0"/></clipPath></defs><g clip-path="url(#master_svg0_251_28771)"><g><g><g style="opacity:0;"><rect x="0" y="0" width="16" height="16" rx="0" fill="#FFFFFF" fill-opacity="0.6499999761581421"/></g><g><path d="M8.00016609375,4.499921953125C8.27616609375,4.499921953125,8.50016609375,4.723921953125,8.50016609375,4.999921953125L8.50016609375,8.915921953125C8.50016609375,9.191921953125,8.27616609375,9.415921953125,8.00016609375,9.415921953125C7.72416609375,9.415921953125,7.50016609375,9.191921953125,7.50016609375,8.915921953125L7.50016609375,4.999921953125C7.50016609375,4.723921953125,7.72416609375,4.499921953125,8.00016609375,4.499921953125ZM8.00016609375,11.666551953125C7.63216609375,11.666551953125,7.33349609375,11.368551953125,7.33349609375,10.999921953125C7.33349609375,10.631251953125,7.63216609375,10.333251953125,8.00016609375,10.333251953125C8.36816609375,10.333251953125,8.66682609375,10.631251953125,8.66682609375,10.999921953125C8.66682609375,11.368551953125,8.36816609375,11.666551953125,8.00016609375,11.666551953125ZM8.00016609375,1.333251953125C4.32416609375,1.333251953125,1.33349609375,4.323921953125,1.33349609375,7.999921953125C1.33349609375,11.675951953125,4.32416609375,14.666551953125,8.00016609375,14.666551953125C11.67619609375,14.666551953125,14.66679609375,11.675951953125,14.66679609375,7.999921953125C14.66679609375,4.323921953125,11.67619609375,1.333251953125,8.00016609375,1.333251953125Z" fill-rule="evenodd" fill="#FFFFFF" fill-opacity="0.6499999761581421"/></g></g></g></g></svg>